# xmcd
#
# Track frame offsets:
#	150
#	14812
#	29299
#	41315
#	58263
#	71233
#	83402
#	96713
#	111493
#	127800
#	141584
#	154392
#	176108
#	187351
#	197927
#	214406
#	234738
#	251649
#	266472
#	279929
#
# Disc length: 3951 seconds
#
# Revision: 0
# Processed by: cddbd v1.4PL0 Copyright (c) Steve Scherf et al.
# Submitted via: EZCDDA 4.3.3.2
#
DISCID=430f6d14
DTITLE=Vários
DYEAR=1900
DGENRE=
TTITLE0=A Cruz Que Carrego - Lourenço E Lourival
TTITLE1=Ainda Ontem Chorei De Saudade - João Mineiro E Marciano
TTITLE2=Amigos De Bar - Teodoro E Sampaio
TTITLE3=Amor A Três - Chitãozinho E Xororó
TTITLE4=Contradições - Leandro E Leonardo
TTITLE5=Copia Das Chaves - Ronaldo Viola E João Carvalho
TTITLE6=Dama De Vermelho - Duduca E Dalvan
TTITLE7=Dama De Vestido Longo - Barrerito
TTITLE8=Dois Passarinhos - Alan E Aladin
TTITLE9=Minha Serenata - Chico Rei E Paraná
TTITLE10=Nasci Pra Te Amar - Milionário E Jusé Rico
TTITLE11=Olhos De Luar - Cristyan E Raulf
TTITLE12=Passe Livre - Teodoro E Sampaio
TTITLE13=Porteiro Do Hotel - Peão Carreiro E Zé Paulo
TTITLE14=Seu Amor Ainda é Tudo - João Mineiro E Marciano
TTITLE15=Som De Cristal - Joaquim E Manuel
TTITLE16=Sua Vez - Gian E Geovani
TTITLE17=Sublime Renuncia - Leandro E Leonardo
TTITLE18=Vestido De Seda - Teodoro E Sampaio
TTITLE19=Volte Amor - Matogrosso E Mathias
EXTD=
EXTT0=
EXTT1=
EXTT2=
EXTT3=
EXTT4=
EXTT5=
EXTT6=
EXTT7=
EXTT8=
EXTT9=
EXTT10=
EXTT11=
EXTT12=
EXTT13=
EXTT14=
EXTT15=
EXTT16=
EXTT17=
EXTT18=
EXTT19=
PLAYORDER=
